<svg width="20" height="21" viewBox="0 0 20 21" fill="none" xmlns="http://www.w3.org/2000/svg">
<g clip-path="url(#clip0_613_112)">
<path d="M6.2918 19.1202C13.8371 19.1202 17.9652 12.8675 17.9652 7.44677C17.9652 7.27099 17.9613 7.0913 17.9535 6.91552C18.7566 6.33477 19.4496 5.61543 20 4.7913C19.2521 5.12405 18.458 5.34137 17.6449 5.43583C18.5011 4.92264 19.1421 4.11645 19.4492 3.16669C18.6438 3.64402 17.763 3.98073 16.8445 4.1624C16.2257 3.50485 15.4075 3.06948 14.5164 2.9236C13.6253 2.77771 12.711 2.92943 11.9148 3.3553C11.1186 3.78117 10.4848 4.45747 10.1115 5.27965C9.73825 6.10182 9.64619 7.02407 9.84961 7.9038C8.21874 7.82196 6.62328 7.39831 5.16665 6.6603C3.71002 5.9223 2.42474 4.88642 1.39414 3.61982C0.870333 4.52292 0.710047 5.59159 0.945859 6.60863C1.18167 7.62567 1.79589 8.51476 2.66367 9.09521C2.01219 9.07452 1.37498 8.89912 0.804688 8.58349V8.63427C0.804104 9.58201 1.13175 10.5007 1.73192 11.2342C2.3321 11.9677 3.16777 12.4707 4.09687 12.6577C3.49338 12.8228 2.85999 12.8469 2.2457 12.728C2.50788 13.5431 3.01798 14.256 3.70481 14.7672C4.39164 15.2784 5.22093 15.5624 6.07695 15.5796C4.62369 16.7211 2.82848 17.3403 0.980469 17.3374C0.652739 17.3369 0.325333 17.3168 0 17.2772C1.87738 18.4817 4.06128 19.1214 6.2918 19.1202Z" fill="#1D2130"/>
</g>
<defs>
<clipPath id="clip0_613_112">
<rect width="20" height="20" fill="white" transform="translate(0 0.995117)"/>
</clipPath>
</defs>
</svg>
